<mxfile host="app.diagrams.net" modified="2023-11-28T20:00:00.884Z" agent="Mozilla/5.0 (Macintosh; Intel Mac OS X 10_15_7) AppleWebKit/605.1.15 (KHTML, like Gecko) Version/17.1 Safari/605.1.15" etag="NDE5zEbD-V6PqP9KH7jj" version="22.1.4" type="github">
  <diagram name="Page-1" id="-XHfJPDyOIU7HPQ84bhI">
    <mxGraphModel dx="954" dy="647" grid="1" gridSize="10" guides="1" tooltips="1" connect="1" arrows="1" fold="1" page="1" pageScale="1" pageWidth="827" pageHeight="1169" math="0" shadow="0">
      <root>
        <mxCell id="0" />
        <mxCell id="1" parent="0" />
        <mxCell id="yQd3t4odJ7Aa37TKswvf-1" value="&amp;lt;&amp;lt;subsystem&amp;gt;&amp;gt;&lt;br&gt;Scheduling Microservice" style="verticalAlign=top;align=left;spacingTop=8;spacingLeft=2;spacingRight=12;shape=cube;size=10;direction=south;fontStyle=4;html=1;whiteSpace=wrap;" vertex="1" parent="1">
          <mxGeometry x="70" y="60" width="490" height="320" as="geometry" />
        </mxCell>
        <mxCell id="yQd3t4odJ7Aa37TKswvf-2" value="app.py" style="shape=folder;fontStyle=1;spacingTop=10;tabWidth=40;tabHeight=14;tabPosition=left;html=1;whiteSpace=wrap;align=left;verticalAlign=top;" vertex="1" parent="1">
          <mxGeometry x="140" y="140" width="140" height="220" as="geometry" />
        </mxCell>
        <mxCell id="yQd3t4odJ7Aa37TKswvf-3" value="API Endpoints" style="html=1;whiteSpace=wrap;" vertex="1" parent="1">
          <mxGeometry x="160" y="183" width="110" height="50" as="geometry" />
        </mxCell>
        <mxCell id="yQd3t4odJ7Aa37TKswvf-4" value="dockerfile" style="shape=folder;fontStyle=1;spacingTop=10;tabWidth=40;tabHeight=14;tabPosition=left;html=1;whiteSpace=wrap;verticalAlign=top;align=left;" vertex="1" parent="1">
          <mxGeometry x="362" y="297" width="70" height="50" as="geometry" />
        </mxCell>
        <mxCell id="yQd3t4odJ7Aa37TKswvf-5" value="db_setup.py" style="shape=folder;fontStyle=1;spacingTop=10;tabWidth=40;tabHeight=14;tabPosition=left;html=1;whiteSpace=wrap;align=left;verticalAlign=top;" vertex="1" parent="1">
          <mxGeometry x="362" y="235" width="90" height="50" as="geometry" />
        </mxCell>
        <mxCell id="yQd3t4odJ7Aa37TKswvf-6" value="utilities.py" style="shape=folder;fontStyle=1;spacingTop=10;tabWidth=40;tabHeight=14;tabPosition=left;html=1;whiteSpace=wrap;align=left;verticalAlign=top;" vertex="1" parent="1">
          <mxGeometry x="363" y="129" width="160" height="100" as="geometry" />
        </mxCell>
        <mxCell id="yQd3t4odJ7Aa37TKswvf-7" value="Helper Methods" style="html=1;whiteSpace=wrap;" vertex="1" parent="1">
          <mxGeometry x="392" y="169" width="110" height="50" as="geometry" />
        </mxCell>
        <mxCell id="yQd3t4odJ7Aa37TKswvf-8" value="Database definition/creation" style="html=1;whiteSpace=wrap;" vertex="1" parent="1">
          <mxGeometry x="160" y="242" width="110" height="50" as="geometry" />
        </mxCell>
        <mxCell id="yQd3t4odJ7Aa37TKswvf-9" value="Setup Application" style="html=1;whiteSpace=wrap;" vertex="1" parent="1">
          <mxGeometry x="160" y="301" width="110" height="50" as="geometry" />
        </mxCell>
        <mxCell id="yQd3t4odJ7Aa37TKswvf-10" value="" style="endArrow=classic;html=1;rounded=0;entryX=1;entryY=0.5;entryDx=0;entryDy=0;dashed=1;exitX=0;exitY=0;exitDx=0;exitDy=32;exitPerimeter=0;" edge="1" parent="1" source="yQd3t4odJ7Aa37TKswvf-5" target="yQd3t4odJ7Aa37TKswvf-8">
          <mxGeometry width="50" height="50" relative="1" as="geometry">
            <mxPoint x="380" y="250" as="sourcePoint" />
            <mxPoint x="430" y="200" as="targetPoint" />
          </mxGeometry>
        </mxCell>
        <mxCell id="yQd3t4odJ7Aa37TKswvf-11" value="&amp;lt;&amp;lt;uses&amp;gt;&amp;gt;" style="edgeLabel;html=1;align=center;verticalAlign=middle;resizable=0;points=[];" vertex="1" connectable="0" parent="yQd3t4odJ7Aa37TKswvf-10">
          <mxGeometry x="0.1304" y="-1" relative="1" as="geometry">
            <mxPoint as="offset" />
          </mxGeometry>
        </mxCell>
        <mxCell id="yQd3t4odJ7Aa37TKswvf-12" value="" style="endArrow=classic;html=1;rounded=0;exitX=1;exitY=0.5;exitDx=0;exitDy=0;entryX=0;entryY=0;entryDx=0;entryDy=78.5;entryPerimeter=0;dashed=1;" edge="1" parent="1" source="yQd3t4odJ7Aa37TKswvf-3" target="yQd3t4odJ7Aa37TKswvf-6">
          <mxGeometry width="50" height="50" relative="1" as="geometry">
            <mxPoint x="380" y="250" as="sourcePoint" />
            <mxPoint x="430" y="200" as="targetPoint" />
          </mxGeometry>
        </mxCell>
        <mxCell id="yQd3t4odJ7Aa37TKswvf-13" value="&amp;lt;&amp;lt;uses&amp;gt;&amp;gt;" style="edgeLabel;html=1;align=center;verticalAlign=middle;resizable=0;points=[];" vertex="1" connectable="0" parent="yQd3t4odJ7Aa37TKswvf-12">
          <mxGeometry x="-0.1398" relative="1" as="geometry">
            <mxPoint as="offset" />
          </mxGeometry>
        </mxCell>
        <mxCell id="yQd3t4odJ7Aa37TKswvf-14" value="" style="endArrow=classic;html=1;rounded=0;entryX=1.012;entryY=0.862;entryDx=0;entryDy=0;dashed=1;exitX=0;exitY=0;exitDx=0;exitDy=32;exitPerimeter=0;entryPerimeter=0;" edge="1" parent="1" source="yQd3t4odJ7Aa37TKswvf-4" target="yQd3t4odJ7Aa37TKswvf-2">
          <mxGeometry width="50" height="50" relative="1" as="geometry">
            <mxPoint x="330" y="277" as="sourcePoint" />
            <mxPoint x="280" y="277" as="targetPoint" />
          </mxGeometry>
        </mxCell>
        <mxCell id="yQd3t4odJ7Aa37TKswvf-15" value="&amp;lt;&amp;lt;uses&amp;gt;&amp;gt;" style="edgeLabel;html=1;align=center;verticalAlign=middle;resizable=0;points=[];" vertex="1" connectable="0" parent="yQd3t4odJ7Aa37TKswvf-14">
          <mxGeometry x="0.0706" relative="1" as="geometry">
            <mxPoint as="offset" />
          </mxGeometry>
        </mxCell>
      </root>
    </mxGraphModel>
  </diagram>
</mxfile>
